# xmcd
#
# Track frame offsets:
#	150
#	17023
#	31665
#	45399
#	60651
#	77052
#	94846
#	112086
#	126580
#	143131
#	159567
#	171852
#	185357
#	202370
#	218194
#	237351
#	252797
#
# Disc length: 3635 seconds
#
# Revision: 1
# Processed by: cddbd v1.4PL0 Copyright (c) Steve Scherf et al.
# Submitted via: audiograbber 1.80
#
DISCID=f00e3111
DTITLE=Various Artist - Hott Trakks 74
DYEAR=1900
DGENRE=
TTITLE0=Brett James - Chasing Amy
TTITLE1=ShEDAISY - Get Over Yourself
TTITLE2=Ennis Sisters - I'd Never Walk Away
TTITLE3=Brad Paisley - I'm Gonna Miss Her
TTITLE4=George Strait - Living And Living Well
TTITLE5=Sara Evans - I Keep Looking
TTITLE6=Trick Pony - Every Other Memory
TTITLE7=Jeffery Steele - I Can Give You Love Like That
TTITLE8=Chris Isaak - Let Me Down Easy
TTITLE9=Clint Black - Money Or Love
TTITLE10=Darryl Worley - Sideways
TTITLE11=JAmie O'Neil - Frantic
TTITLE12=Pat Green - Three Days
TTITLE13=Leslie Satcher - Slow Way Home
TTITLE14=Pat Green - Carry On
TTITLE15=Shannon Brown - Untangle My Heart
TTITLE16=Tracy Lawrence - What A Memory
EXTD=
EXTT0=
EXTT1=
EXTT2=
EXTT3=
EXTT4=
EXTT5=
EXTT6=
EXTT7=
EXTT8=
EXTT9=
EXTT10=
EXTT11=
EXTT12=
EXTT13=
EXTT14=
EXTT15=
EXTT16=
PLAYORDER=
